<svg height="240" viewBox="0 0 182 240" width="182" xmlns="http://www.w3.org/2000/svg"><g fill="none" fill-rule="evenodd"><path d="m161.2 125.12 6.52-3.68c2.484-1.487 4.578-3.543 6.11-6 1.502-2.177 2.383-4.72 2.55-7.36l.16-44.05c.024-.738-.116-1.472-.41-2.15-.192-.417-.506-.765-.9-1l-.13-.08-72.5-41.89-.27-.15c-.577-.244-1.21-.324-1.83-.23-1.093.158-2.143.532-3.09 1.1l-6.73 3.79v60.96l70.52 40.72zm8.7.26-7.64 4.3c-.69.394-1.54.394-2.23 0l-72.6-41.94c-.767-.374-1.258-1.147-1.27-2v-63.45c-.002-.397.102-.787.3-1.13l.1-.18c.204-.387.517-.707.9-.92l7.73-4.36c1.473-.866 3.106-1.427 4.8-1.65 1.543-.207 3.113.062 4.5.77l.15.08.13.07 72.53 41.88c.108.05.212.11.31.18h.05c1.114.694 2 1.698 2.55 2.89.58 1.28.862 2.675.83 4.08l-.14 44.09c-.17 3.49-1.293 6.866-3.25 9.76-1.944 3.093-4.602 5.675-7.75 7.53z" fill="#b3b4b4"/><path d="m97.11 61.01v-6.33l63.28 39.34 15.94-35.11-72.71-42-.13-.07c-1.78-1-4.37-.79-7.23.82l-7.74 4.36-.15.26v26.58l-8.7 31.79 7.63-4.27c5.37-3 9.78-9.93 9.81-15.34z" fill="#fff"/><path d="m105.62 66.09v-6.84l.43.27 54.25 21.32 15.64-21.83-72.38-41.81-.12-.07c-.956-.496-2.043-.68-3.11-.53-1.356.187-2.662.642-3.84 1.34l-7.67 4.32-.08.13v62.86l7.22-4.07c2.77-1.653 5.104-3.943 6.81-6.68 1.705-2.493 2.694-5.405 2.86-8.42zm.59-5.83v5.83c-.164 3.12-1.18 6.137-2.94 8.72-1.754 2.814-4.154 5.17-7 6.87l-7.67 4.3-.42.24v-64.04l.15-.26.11-.1 7.74-4.36c1.242-.736 2.62-1.215 4.05-1.41 1.017-.133 2.05 0 3 .39l.42.24.13.08 72.66 41.95.25.14-.15.25-15.88 22.28-.15.24-.24-.15z" fill="#b3b4b4"/><path d="m32.66 107.79v49.66c0 3.37 1.14 5.78 2.93 6.83l81.58 47c1.5.92 3.51.89 5.65-.36l29.85-17.4c4.64-2.7 8.5-9.93 8.5-16.13v-49.67l-81.5-47.07-47 27.14z" fill="#fff"/><path d="m22.51 126.01v48.37c-.03 1.138.166 2.27.58 3.33.23.623.65 1.158 1.2 1.53l.15.1 72.8 41.94c.122.052.24.116.35.19.382.198.81.285 1.24.25.71-.074 1.395-.31 2-.69l50.71-29.44c2.21-1.466 3.986-3.5 5.14-5.89 1.388-2.558 2.15-5.41 2.22-8.32v-48.36l-70.79-40.89zm-4.51 48.37v-49.67c-.002-.803.425-1.547 1.12-1.95l67.85-39.17c.704-.414 1.576-.414 2.28 0l72.93 42.11c.767.374 1.258 1.147 1.27 2v49.68c-.086 3.633-1.032 7.193-2.76 10.39-1.552 3.138-3.927 5.795-6.87 7.69l-50.71 29.44c-1.214.737-2.584 1.18-4 1.29-1.405.097-2.806-.253-4-1l-72.9-42c-.13-.06-.253-.13-.37-.21-1.313-.84-2.338-2.062-2.94-3.5-.675-1.618-1.015-3.357-1-5.11z" fill="#b3b4b4"/><path d="m20.55 124.76v49.62c0 3.38 1.14 5.78 2.93 6.83l69.17 40c1.832 1.198 3.923 1.942 6.1 2.17l26.42-21.69c4.67-2.67 8.5-9.93 8.5-16.13v-41.61l-39.94 22.15z" fill="#f6f6f6"/><path d="m20.64 124.92v49.38c-.033 1.406.22 2.804.74 4.11.4 1.023 1.118 1.89 2.05 2.47l73.31 42.35.67-3.24v-.12l.11-.06 27.46-18.38c2.534-1.628 4.572-3.922 5.89-6.63 1.538-2.846 2.38-6.016 2.46-9.25v-41.11l-39.43 22.24-.14.08-.14-.08zm-.45 49.83v.28l-.13-.73c-.03 1.482.238 2.955.79 4.33l-.2-1.09.25.84.39.74-.4-.47c.38.965 1.012 1.81 1.83 2.45.144.106.294.203.45.29l-.37-.45h.05l.32.43.66.38 73 42.17.34.2.08-.38.72-3.5 27.35-18.32c2.626-1.68 4.74-4.05 6.11-6.85 1.584-2.93 2.45-6.19 2.53-9.52v-42.09l-.42.25-39.8 22.4-73.24-41.92-.42-.24v50.36l.11.45v-.01z" fill="#b3b4b4"/><path d="m93.9 166.38v49.57c0 6.18 3.84 9.08 8.5 6.42l50.3-28.85c4.66-2.66 8.5-9.93 8.5-16.13v-49.67l-67.15 38.76z" fill="#fff"/><path d="m94.1 166.78v49.23c-.06 1.656.31 3.3 1.07 4.77.39.712.955 1.314 1.64 1.75.656.4 1.41.61 2.18.6 1.132-.05 2.232-.393 3.19-1l50.37-28.9c2.534-1.628 4.572-3.922 5.89-6.63 1.534-2.837 2.377-5.996 2.46-9.22v-49.17l-66.79 38.56zm-.57 49.23v-50.06l.42.24 67.08-38.73.42-.24v50.16c-.08 3.325-.948 6.584-2.53 9.51-1.37 2.804-3.482 5.177-6.11 6.86l-50.37 28.9c-1.046.63-2.24.974-3.46 1-.875.008-1.735-.23-2.48-.69-.77-.5-1.4-1.188-1.83-2-.803-1.54-1.2-3.263-1.15-5z" fill="#b3b4b4"/><path d="m87.99 85.46 73.2 42.26-67.28 38.67-73.05-42.18" fill="#dadcdd"/><path d="m49.11 112.59v-4.34l-28.32 16.28 73.09 42.15 67.18-38.71-16.4-9.47-4.03 1.77 11.78 7.45-58.59 33.83-54.66-31.07-10.88-5.53z" fill="#fff"/><path d="m88.17 85.24 73.16 42.24c.132.078.176.247.1.38-.025.04-.06.075-.1.1l-67.25 38.82c-.092.058-.208.058-.3 0l-73.4-42.17c-.132-.078-.176-.247-.1-.38.024-.042.058-.076.1-.1l67.52-38.89c.086-.052.194-.052.28 0zm72.45 42.48-72.59-41.91-66.94 38.57 72.81 41.84 66.69-38.5z" fill="#b3b4b4"/><path d="m178.63 108.08.16-44.05c0-5.41-4.36-7.36-9.72-4.34l-7.73 4.36-.15.26v63.41l7.64-4.3c5.37-3 9.78-9.93 9.81-15.34z" fill="#fff"/><path d="m178.35 108.07.16-44.05c.04-1.146-.217-2.284-.75-3.3-.372-.676-.926-1.234-1.6-1.61-.716-.385-1.518-.58-2.33-.57-1.63.06-3.218.54-4.61 1.39l-7.95 4.45-.08.13v62.87l7.49-4.22c2.77-1.653 5.104-3.943 6.81-6.68 1.705-2.493 2.694-5.405 2.86-8.42zm.72-44-.17 44.01c-.164 3.12-1.18 6.137-2.94 8.72-1.754 2.814-4.154 5.17-7 6.87l-7.91 4.45-.42.24v-64.04l.15-.26.11-.1 8-4.51c1.477-.9 3.162-1.402 4.89-1.46.907-.01 1.8.21 2.6.64.766.428 1.396 1.062 1.82 1.83.577 1.1.86 2.33.82 3.57z" fill="#b3b4b4"/><path d="m88.51 85.76v-63.41l72.68 41.96v63.41" fill="#fff"/><path d="m157.16 125.78-4.9-2.82zm0 0v-59.48l-65.83-38.13.28 17.51v41.57l59.29 34.93 6.25 3.6z" fill="#ebeceb"/><path d="m91.62 42.29v45l53.32 31.43v-38.58c0-3.75-2.29-8.15-5.09-9.78z" fill="#dadcdd"/><path d="m157.54 125.61-.56-.32v-59l-65.38-37.91v59.18l-.56-.33v-59.31c0-.104.058-.2.15-.248.093-.05.204-.042.29.018l65.93 38.2c.086.05.14.14.14.24v59.48z" fill="#b3b4b4"/><path d="m88.07 85.67v-63.41c0-.104.058-.2.15-.248.093-.05.204-.042.29.018l72.55 42c.086.05.14.14.14.24v63.41c0 .155-.125.28-.28.28-.052.017-.108.017-.16 0l-72.55-42c-.086-.05-.14-.14-.14-.24zm.56-62.92v62.76l72 41.72v-62.76l-72-41.73z" fill="#b3b4b4"/><path d="m60.19 165.91-9.35-5.43-3.07 2.18 2.13 4.66 3.3 10.06 2.7 3.32c3.79-2.26 4.25-2.77 4.33-6v-8.77z" fill="#ebeceb"/><path d="m59.77 166.15-8.87-5.17-2.56 1.82 2 4.31 3.26 10 2.41 3c1.174-.583 2.23-1.376 3.12-2.34.553-.95.794-2.047.69-3.14v-8.53zm-8.71-6 9.32 5.42c.147.07.24.218.24.38v8.77c0 1.72-.19 2.72-.86 3.62-1.038 1.134-2.28 2.064-3.66 2.74-.182.12-.425.08-.56-.09l-2.64-3.31-3.29-10.09v-.07l-2.14-4.65c-.1-.187-.043-.418.13-.54l3.07-2.18c.14-.09.32-.09.46 0z" fill="#b3b4b4"/><path d="m57.12 167.81-9.35-5.16v9.91c0 7.9 9.35 11.56 9.35 5.36z" fill="#f6f6f6"/><path d="m56.69 168.06-8.5-4.68v9.19c-.06 2.99 1.46 5.79 4 7.37.55.33 1.157.554 1.79.66.492.087 1 .03 1.46-.16.88-.51 1.364-1.503 1.22-2.51v-9.86zm-8.72-5.78 9.32 5.15c.147.07.24.218.24.38v10.11c.16 1.344-.523 2.648-1.72 3.28-.607.24-1.27.303-1.91.18-.738-.12-1.447-.38-2.09-.76-2.81-1.726-4.5-4.804-4.45-8.1v-9.91c0-.148.078-.285.205-.36.127-.077.285-.08.415-.01zm86.77-45.41 18.36 10.6c.132.078.176.247.1.38-.025.04-.06.075-.1.1l-59.15 34.17c-.092.058-.208.058-.3 0l-65.37-37.17c-.132-.078-.176-.247-.1-.38.024-.042.058-.076.1-.1l9.39-5.35v.64l-8.68 4.95 64.83 36.85 58.59-33.83-17.66-10.2v-.65z" fill="#b3b4b4"/><path d="m128.24 75.8-71-41.33c-1.112-.832-2.638-.832-3.75 0l-2.42 1.49c-2 1.24-2.84 1.83-2.84 4.74v73c0 3.75 2.29 8.15 5.09 9.78l53.14 30.85 26.93-15.55v-53.2c0-3.75-2.29-8.15-5.09-9.78z" fill="#fff"/><path d="m148.42 34.74c11.48 6.64 20.82 24.27 20.82 39.36 0 8.34-2.84 14.15-7.33 16.57-.366.196-.743.37-1.13.52l-8.45 3.88-2.08-4.77c-.59-.28-1.19-.59-1.8-.94-11.5-6.65-20.82-24.27-20.82-39.36-.045-2.946.383-5.88 1.27-8.69l-1.85-4.25 8-3.67c3.61-1.88 8.27-1.58 13.35 1.36z" fill="#0092ba"/><path d="m139.39 38.87c11.5 6.65 20.81 24.27 20.81 39.36s-9.3 21.93-20.81 15.29-20.81-24.27-20.81-39.36 9.32-21.93 20.81-15.29z" fill="#2ebce3"/><path d="m147.43 77.95c-1.94 1.31-4.48 1.11-7-.28-2.963-1.79-5.383-4.35-7-7.41-1.242-2.176-2.12-4.54-2.6-7l-2.53-1.38v-2l2.22 1.21v-1.94l-2.22-1.22v-2l2.49 1.37c.307-1.67 1.236-3.16 2.6-4.17 1.94-1.31 4.48-1.11 7 .28 2.963 1.79 5.383 4.35 7 7.41l-3 2c-.938-1.77-2.342-3.25-4.06-4.28-1.21-.828-2.788-.89-4.06-.16-.49.343-.88.808-1.13 1.35l6.13 3.36v2l-6.62-3.63c-.035.31-.052.62-.05.93 0 .334.016.668.05 1l6.62 3.63v2l-6.13-3.36c.288.896.666 1.76 1.13 2.58.938 1.77 2.342 3.25 4.06 4.28 1.21.828 2.788.89 4.06.16l3 5.25z" fill="#fff" fill-rule="nonzero"/><path d="m144.14 95.55c-1.663-.46-3.26-1.13-4.75-2-11.5-6.65-20.81-24.27-20.81-39.36-.003-1.15.054-2.297.17-3.44l19.79 11.51c3.08 1.79 5.6 6.63 5.6 10.76z" fill="#009dc9"/><path d="m127.11 77.75-71.03-41.37c-.235-.168-.505-.28-.79-.33-.236.04-.46.136-.65.28l-2.42 1.49c-.557.287-1.063.66-1.5 1.11-.242.54-.336 1.133-.27 1.72v73c.048 1.626.476 3.22 1.25 4.65.604 1.286 1.543 2.385 2.72 3.18l54.26 31.5-4.5 2.6-52-30.2c-1.922-1.224-3.468-2.954-4.47-5-1.123-2.07-1.743-4.376-1.81-6.73v-73c-.09-1.506.302-3.002 1.12-4.27.776-.983 1.76-1.782 2.88-2.34l2.42-1.49c.883-.616 1.924-.963 3-1 1.09.018 2.15.336 3.07.92l71 41.33c1.92 1.225 3.467 2.955 4.47 5 1.102 2.075 1.702 4.38 1.75 6.73v51.85l-4.52 2.61v-54.41c-.046-1.622-.47-3.21-1.24-4.64-.604-1.285-1.544-2.384-2.72-3.18z" fill="#b3b4b4"/><path d="m128.24 75.8-71-41.31c-1.228-.817-2.842-.753-4 .16l-3.34 1.93 1.86 2.52 12.78 61.57c.632 3.712 2.412 7.133 5.09 9.78l43.9 39.71 19.8-11.43v-53.15c0-3.75-2.29-8.15-5.09-9.78z" fill="#f6f6f6"/><path d="m82.62 49.28-25.42-14.79c-1.228-.817-2.842-.753-4 .16l-2.13 1.26 20 18 7.61-2.6 4-2z" fill="#dadcdd"/><path d="m128.09 76.05-71-41.31c-.605-.4-1.327-.588-2.05-.53-.603.107-1.176.342-1.68.69l-3 1.76 1.68 2.27.05.12 12.73 61.58c.324 1.86.938 3.66 1.82 5.33.803 1.603 1.88 3.055 3.18 4.29l44 39.77-.51.3-43.87-39.66c-1.353-1.276-2.473-2.78-3.31-4.44-.906-1.725-1.537-3.58-1.87-5.5l-12.73-61.51-1.82-2.46-.19-.25.27-.16 3.25-1.96c.56-.377 1.194-.63 1.86-.74.845-.076 1.69.136 2.4.6l71 41.31c1.595 1.04 2.875 2.495 3.7 4.21.958 1.794 1.482 3.787 1.53 5.82v53l-.56.32v-53.32c-.046-1.942-.546-3.846-1.46-5.56-.776-1.627-1.983-3.01-3.49-4z" fill="#b3b4b4"/><path d="m124.32 78.18-71.07-41.33c-2.8-1.63-5.09.1-5.09 3.85v73c0 3.75 2.29 8.15 5.09 9.78l49.79 32.79 26.37-15.23v-53c0-3.75-2.29-8.15-5.09-9.78z" fill="#fff"/><path d="m62.64 42.63-2 17 5.77 11.44 8.92-4.37.17-.08c1.73-.93 2.81-3.2 2.81-6.38v-8.47z" fill="#e6e7e8"/><path d="m48.16 81.08v32.58c0 3.75 2.29 8.15 5.09 9.78l44.33 29.2 6.42 3 4.88-2.82.1-22.3v-46.41c-.015-1.518-.356-3.015-1-4.39-.59-1.37-1.576-2.532-2.83-3.34l-3.25-1.87c-.83-.535-1.793-.826-2.78-.84-1.316.045-2.598.43-3.72 1.12l-5.89 3.19c-.167.07-.325.16-.47.27-.714.492-1.26 1.19-1.57 2-.326.828-.49 1.71-.48 2.6v11.53l-1.93-1.11c-.885-.63-1.92-1.015-3-1.12-1.3.005-2.568.39-3.65 1.11l-6.06 3.33c-.944.39-1.702 1.128-2.12 2.06-.414.906-.62 1.894-.6 2.89v7.34l-1.53-.88c-.832-.586-1.8-.95-2.81-1.06-1.215-.02-2.408.328-3.42 1l-4.69 2.6v-18.85c-.015-1.518-.356-3.015-1-4.39-.59-1.365-1.57-2.524-2.82-3.33l-3-1.74-.21-.12-.12-.07c-.587-.38-1.202-.715-1.84-1z" fill="#f6f6f6"/><path d="m124.18 78.38-71.07-41.29c-.563-.35-1.207-.547-1.87-.57-.43-.007-.852.108-1.22.33-.39.25-.71.594-.93 1-.463.884-.687 1.873-.65 2.87v73c.056 1.918.556 3.797 1.46 5.49.774 1.625 1.977 3.01 3.48 4l49.44 33.17-.56.32-49.15-33c-1.595-1.038-2.875-2.495-3.7-4.21-.954-1.8-1.472-3.802-1.51-5.84v-73c-.036-1.096.215-2.182.73-3.15.268-.455.642-.84 1.09-1.12.454-.278.977-.424 1.51-.42.765.022 1.51.246 2.16.65l71.07 41.33c1.594 1.04 2.874 2.495 3.7 4.21.957 1.79 1.48 3.78 1.53 5.81v52.87l-.57.33v-53.2c-.042-1.95-.543-3.86-1.46-5.58-.772-1.627-1.976-3.01-3.48-4z" fill="#b3b4b4"/><g fill-rule="nonzero"><path d="m121.31 198.87 18.84-10.88c1.61-1.05 2.904-2.52 3.74-4.25.983-1.833 1.52-3.87 1.57-5.95v-19.51c.034-1.042-.2-2.075-.68-3-.246-.41-.59-.754-1-1-.39-.234-.836-.356-1.29-.35-.708.02-1.398.226-2 .6l-18.85 10.88c-1.6 1.028-2.892 2.468-3.74 4.17-.983 1.833-1.52 3.87-1.57 5.95v19.51c-.033 1.042.2 2.075.68 3 .246.41.59.754 1 1 .39.234.836.356 1.29.35.708-.02 1.398-.226 2-.6zm19.23-10.22-18.84 10.88c-.71.44-1.525.684-2.36.71-.596.005-1.182-.158-1.69-.47-.516-.326-.942-.777-1.24-1.31-.556-1.052-.83-2.23-.79-3.42v-19.52c.05-2.2.62-4.36 1.66-6.3.893-1.856 2.276-3.433 4-4.56l18.85-10.88c.71-.44 1.525-.685 2.36-.71.596-.005 1.182.158 1.69.47.516.326.942.777 1.24 1.31.556 1.052.83 2.23.79 3.42v19.51c-.05 2.2-.62 4.36-1.66 6.3-.893 1.856-2.276 3.433-4 4.56z" fill="#c8c8c8"/><path d="m144.14 78.82c-1.318-.1-2.596-.498-3.74-1.16-2.963-1.79-5.383-4.35-7-7.41-1.242-2.176-2.12-4.54-2.6-7l-2.5-1.37v-2l2.22 1.22v-1.94l-2.22-1.22v-1.67l10.25 6c1.102.682 2.054 1.58 2.8 2.64v.18l-6.62-3.63c-.035.31-.052.62-.05.93 0 .334.016.668.05 1l6.62 3.63v2l-6.13-3.36c.288.896.666 1.76 1.13 2.58.938 1.77 2.342 3.25 4.06 4.28 1.108.728 2.506.86 3.73.35z" fill="#e6e7e8"/><path d="m56.2 49.84 12.26 7.08.44.25 12.26 7.08.44.25.15.08 12.7 7.33 12.12 7 .44.25 12.89 7.43v54.85l-.59.34v-10.57l-12.11-7v12.87l12.7 7.3-.59.34-24.85-14.34v23.5l-.58-.33v-23.46l-12.11-7v23.61l-.59-.33v-23.62l-12.11-7v23.73l-.59-.33v-23.77l-12.12-7v23.83l-.59-.33v-82.29l.44.25zm63.07 80.69v-14l-12.11-7v14zm-62.92-36.33 12.12 7v-14l-12.12-7zm12.7 7.33 12.11 7v-14l-12.11-7zm12.7 7.33 12.11 7v-14l-12.11-7zm12.7 7.33 12.12 7v-14l-12.12-7zm12.12 7.67-12.12-7v12.87l12.12 7zm-12.67-7.32-12.11-7v12.84l12.11 7zm-12.7-7.33-12.11-7v12.87l12.11 7zm-12.7-7.33-12.12-7v12.87l12.12 7v-12.88zm-12.12-37 12.12 7v-14.28l-12.12-7zm12.7 7.33 12.11 7v-14.28l-12.11-7zm12.7 7.33 12.11 7v-14.28l-12.11-7zm12.7 7.33 12.12 7v-14.27l-12.12-7zm12.7 7.33 12.11 7v-14.27l-12.11-7zm12.11 7.67-12.11-7v14l12.11 7zm-12.7-7.33-12.12-7v14l12.12 7zm-12.69-7.37-12.11-7v14l12.11 7zm-12.7-7.33-12.11-7v14l12.11 7zm-12.7-7.33-12.12-7v14l12.12 7z" fill="#d1d3d4"/></g><path d="m31.9 100.38c0-1.6.58-2.66 1.43-2.89l6.6-3.67c2-1.11 2.22-.81 4 .22l3 1.74c1.49.86 2.71 3.46 2.71 5.78v15.32l8-4.45c2-1.11 2.46-.85 4 0l3.2 1.84c.744.498 1.34 1.19 1.72 2v-12.23c0-1.57.56-2.62 1.39-2.87l6.2-3.41c2.28-1.25 2.77-1 4.46 0l3 1.71c1.167.845 2 2.073 2.35 3.47v-15.77c-.13-1.083.336-2.15 1.22-2.79l6-3.29c2.31-1.26 3.27-.9 4.3-.3l3.28 1.89c1.49.86 2.71 3.46 2.71 5.78v68.61l-7.78 4.49-61.79-35.18z" fill="#fff"/><path d="m56.38 89.62c.815.404 1.477 1.06 1.89 1.87l8-4.37c-.324-.717-.45-1.507-.37-2.29 0-1.57 1.65-3.39 3.31-2.43 1.696 1.13 2.845 2.917 3.17 4.93l21.65 13.05 5-3.38 16.13-9c-.35-.986-.536-2.023-.55-3.07 0-3.09 1.91-4.49 4.26-3.13s4.26 5 4.26 8.06-1.91 4.49-4.26 3.13c-1.092-.69-2.002-1.633-2.65-2.75l-17.32 9.67-4.74 3.47-21.88-13.22c-.248.565-.73.993-1.32 1.172-.59.18-1.23.09-1.75-.242-.758-.407-1.388-1.016-1.82-1.76l-8.05 4.39c.31.68.433 1.428.36 2.17 0 1.55-1.48 3.49-3.31 2.43-2.034-1.443-3.262-3.766-3.31-6.26 0-2.4 2-3.16 3.31-2.43z" fill="#fcb218"/><path d="m29.68 98.55c-.02-1.014.19-2.02.62-2.94l.09-.16c.422-.84 1.132-1.5 2-1.86l6.51-3.59c3-1.66 3.51-1.35 5.9 0l.12.07.21.12 3 1.74c1.25.806 2.23 1.965 2.82 3.33.644 1.375.985 2.872 1 4.39v13.37l4.69-2.6c1.012-.672 2.205-1.02 3.42-1 1.025.113 2.003.49 2.84 1.09l1.53.88v-5.51c-.02-.996.186-1.984.6-2.89.418-.932 1.176-1.67 2.12-2.06l6.06-3.33c1.082-.72 2.35-1.105 3.65-1.11 1.08.105 2.115.49 3 1.12l1.93 1.11v-13.34c-.01-.89.154-1.772.48-2.6.31-.81.856-1.508 1.57-2 .145-.11.303-.2.47-.27l5.87-3.19c1.12-.692 2.403-1.082 3.72-1.13.987.014 1.95.305 2.78.84l3.22 1.89c1.25.806 2.23 1.965 2.82 3.33.644 1.375.985 2.872 1 4.39v69.16l-4.46 2.58v-71.71c-.01-.858-.205-1.704-.57-2.48-.203-.533-.55-1-1-1.35l-3.28-1.89c-.172-.12-.366-.204-.57-.25-.547.07-1.07.265-1.53.57l-5.86 3.19c-.09.28-.13.575-.12.87v19.41c0 .996-.648 1.876-1.6 2.17-.578.185-1.207.127-1.74-.162-.535-.29-.928-.783-1.09-1.368-.164-.54-.407-1.05-.72-1.52-.145-.237-.332-.447-.55-.62h-.07l-3-1.71c-.32-.205-.653-.386-1-.54-.447.115-.87.308-1.25.57l-6.2 3.41h-.09c-.077.27-.11.55-.1.83v10.41c0 .835-.456 1.603-1.19 2-1.078.565-2.41.165-3-.9-.144-.275-.32-.533-.52-.77-.103-.122-.224-.226-.36-.31l-3.2-1.84c-.5-.29-.83-.48-.87-.48-.322.105-.628.253-.91.44l-7.86 4.36c-.688.465-1.575.513-2.31.126-.733-.387-1.195-1.146-1.2-1.976v-17.13c-.018-.864-.223-1.713-.6-2.49-.204-.533-.55-1-1-1.35l-3-1.74-.22-.13-.13-.07c-.58-.34-.71-.41-1.44 0l-6.6 3.67-.15.08c-.08.27-.118.55-.11.83v29.15l-4.52-2.57v-26.56h-.05z" fill="#2ebce3"/><path d="m33.37 95.64 6.6-3.67c2-1.11 2.22-.81 4 .22l3 1.74c1.49.86 2.71 3.46 2.71 5.78v17.17l8-4.45c2-1.11 2.46-.85 4 0l3.2 1.84c1.306.972 2.2 2.4 2.5 4l6.18 3.92-5.57-19.24 6.2-3.41c2.28-1.25 2.77-1 4.46 0l3 1.71c1.49.86 2.71 3.46 2.71 5.78v.58l3.62 1-2.8-26.03 6-3.29c2.31-1.25 3.27-.9 4.3-.3l3.28 1.89c1.49.86 2.71 3.46 2.71 5.78v70.44l-7.78 4.49-5.1-2.91-1.22-2.55c-.18.27-.5.88-.85 1.37l-11.5-6.55v-.57l-4.87-2.43-.11.16-33.62-19.16c-5.49-24.3-2.85-32.57-3-33.31z" fill="#dbeef7"/><path d="m33.1 95.71c-.03-.126.027-.257.14-.32l6.6-3.67c2-1.11 2.35-.91 4 0l.33.19 3 1.74c.892.608 1.587 1.463 2 2.46.528 1.114.81 2.328.83 3.56v16.71l7.61-4.22c.672-.475 1.468-.746 2.29-.78.72.11 1.406.387 2 .81l3.2 1.84c.655.414 1.2.98 1.59 1.65.456.75.793 1.567 1 2.42l5.47 3.47-5.38-18.55c-.034-.126.024-.26.14-.32l6.21-3.32c.77-.527 1.67-.828 2.6-.87.77.115 1.5.414 2.13.87l3 1.71c.892.608 1.587 1.463 2 2.46.524 1.11.803 2.322.82 3.55v.45l3 2.32-2.78-27.26c-.014-.124.055-.242.17-.29l6-3.28c.85-.534 1.826-.837 2.83-.88.645.024 1.27.225 1.81.58l3.19 1.89c.892.608 1.587 1.463 2 2.46.524 1.11.803 2.322.82 3.55v70.28l-.57.33v-70.6c-.015-1.15-.278-2.28-.77-3.32-.37-.9-.997-1.67-1.8-2.22l-3.28-1.89c-.457-.308-.99-.485-1.54-.51-.885.057-1.74.335-2.49.81l-5.88 3.2 2.83 27.7c.01.075-.012.15-.06.21-.046.06-.114.1-.19.11-.075.01-.15-.012-.21-.06l-3.6-2.81c-.075-.052-.12-.138-.12-.23v-.58c-.015-1.15-.278-2.28-.77-3.32-.37-.9-.997-1.67-1.8-2.22l-3-1.71c-.56-.402-1.202-.672-1.88-.79-.825.055-1.62.33-2.3.8l-6 3.3 5.51 19c.03.07.03.15 0 .22-.04.064-.103.11-.176.127s-.15.004-.214-.037l-6.17-3.91c-.066-.04-.113-.105-.13-.18-.205-.838-.543-1.638-1-2.37-.34-.59-.818-1.09-1.39-1.46l-3.2-1.85c-.488-.334-1.04-.565-1.62-.68-.718.038-1.41.277-2 .69l-8 4.44c-.086.06-.197.067-.29.018-.092-.048-.15-.144-.15-.248v-17.16c-.02-1.157-.288-2.297-.79-3.34-.366-.888-.98-1.652-1.77-2.2l-3-1.74-.33-.19c-1.38-.8-1.68-1-3.39 0l-6.48 3.53c6.47 24.62-2.41 10.31 2.93 33.29l-.46-.26c-4.83-22.27-2.93-32.54-3.07-33.09zm55.12 62.73-.82-1.71c-.17.28-.36.62-.58.92l-.48-.27c.2-.3.42-.67.59-1l.26-.43c.027-.043.065-.077.11-.1.138-.065.303-.007.37.13l1.4 2.92-.86-.49zm-13.42-7.64v-.24l-3.32-1.66-1.63-.93.12-.17c.077-.12.232-.163.36-.1l4.87 2.43c.095.047.153.145.15.25v.74l-.56-.32zm-22.48-12.8c.052-.015.108-.015.16 0 .23.086.43.24.57.44l-.73-.42zm15.58-35.26h.05z" fill="#2ebce3"/><path d="m86.76 82.69 4.34 2.5c1.49.86 2.71 3.46 2.71 5.78v70.57h-.07l-9.7-5.52v-70.64c0-2.32 1.22-3.51 2.72-2.65zm-17.37 20.52 4.34 2.5c1.49.86 2.71 3.46 2.71 5.78v40.25l-9.77-5.56v-40.32c0-2.32 1.22-3.51 2.71-2.65zm-17.37 13.47 4.34 2.5c1.49.86 2.71 3.46 2.71 5.78v16.89l-9.77-5.56v-16.91c0-2.32 1.22-3.51 2.71-2.65zm-17.37-20.8 4.34 2.5c1.49.86 2.71 3.46 2.71 5.78v27.81l-9.8-5.59v-27.85c0-2.32 1.22-3.51 2.71-2.65z" fill="#fff"/><path d="m93.81 158.99v2.55h-.07l-9.7-5.52v-2.64l9.77 5.58zm-61.91-35.33 9.77 5.58v2.72l-9.77-5.58v-2.74zm17.37 9.92 9.77 5.58v2.69l-9.77-5.56zm17.37 9.92 9.77 5.58v2.66l-9.77-5.56z" fill="#ecf5fa"/><path d="m86.9 82.45 4.34 2.5c.892.608 1.587 1.463 2 2.46.527 1.11.81 2.32.83 3.55v70.42l-.35.2-.21-.12v-70.49c-.015-1.15-.278-2.28-.77-3.32-.37-.9-.997-1.67-1.8-2.22l-4.34-2.5c-.244-.15-.523-.234-.81-.24-.207.002-.41.064-.58.18-.2.137-.363.32-.48.53-.304.614-.442 1.296-.4 1.98v70.89l-.57-.32v-70.57c-.028-.77.145-1.536.5-2.22.147-.308.367-.575.64-.78.264-.175.573-.27.89-.27.385.008.762.118 1.09.32zm-17.37 20.52 4.34 2.5c.892.608 1.587 1.463 2 2.46.625 1.173 1.013 2.457 1.14 3.78l.14 40.45-.49-.28-.21-40.16c-.128-1.24-.5-2.443-1.09-3.54-.37-.9-.997-1.67-1.8-2.22l-4.34-2.5c-.244-.15-.524-.233-.81-.24-.18.006-.358.06-.51.16-.2.136-.364.318-.48.53-.308.6-.457 1.267-.43 1.94v40.53l-.57-.32v-40.19c-.03-.774.143-1.543.5-2.23.162-.288.387-.534.66-.72.264-.176.573-.27.89-.27.385.008.762.118 1.09.32zm-17.37 13.47 4.34 2.5c.892.608 1.587 1.463 2 2.46.527 1.11.81 2.32.83 3.55v17.05l-.56-.32v-16.72c-.015-1.15-.278-2.28-.77-3.32-.37-.9-.997-1.67-1.8-2.22l-4.3-2.49c-.244-.15-.523-.234-.81-.24-.207-.002-.41.06-.58.18-.2.137-.363.318-.48.53-.308.6-.457 1.267-.43 1.94v17.12l-.57-.32v-16.76c-.03-.774.143-1.543.5-2.23.16-.288.387-.535.66-.72.264-.176.573-.27.89-.27.385.007.762.118 1.09.32zm-17.37-20.81 4.34 2.5c.892.608 1.587 1.463 2 2.46.523 1.11.803 2.322.82 3.55v28l-.56-.32v-27.67c-.015-1.15-.278-2.28-.77-3.32-.35-.885-.948-1.652-1.72-2.21l-4.34-2.5c-.244-.15-.523-.234-.81-.24-.207-.002-.41.06-.58.18-.2.137-.364.318-.48.53-.308.6-.456 1.267-.43 1.94v28l-.57-.32v-27.68c-.03-.774.142-1.543.5-2.23.16-.288.387-.534.66-.72.26-.174.567-.268.88-.27.385.007.762.118 1.09.32z" fill="#2ebce3"/><path d="m47.22 16.19 16.89 9.8c6.87 4 8.06 7 8.06 12.73v24.92c0 3.18-1.08 5.45-2.81 6.38l-.17.08-8.92 4.37-5.81-11.42 3.07-26.42-15.54-9.91-8.09 16.95-1.45-23.77 9.62-4.26.42-.18c1.605-.475 3.338-.203 4.72.74z" fill="#5baa00"/><path d="m37.6 20.46 17.3 10.05c6.87 4 8.06 7 8.06 12.73v24.92c0 5.75-3.54 8.49-8.06 5.79-1.29-.77-18.24-11.08-18.54-11.26-5.53-3.43-6.85-5.77-6.85-11.52v-24.93c0-5.75 3.62-8.36 8.06-5.79z" fill="#93ce11"/><path d="m50.98 40.52c1.35 1.722 2.146 3.815 2.28 6 .01.033.01.067 0 .1-.048.08-.15.106-.23.06l-3.53-2.08c-.052-.028-.086-.08-.09-.14-.012-.956-.27-1.893-.75-2.72-.295-.448-.684-.827-1.14-1.11v4.75c1.26 1.15 2.21 2.08 2.93 2.86.586.62 1.118 1.29 1.59 2 .61.916 1.056 1.93 1.32 3 .14.593.207 1.2.2 1.81.017.727-.14 1.447-.46 2.1-.22.414-.548.76-.95 1-.464.27-.994.4-1.53.38-1.098-.074-2.164-.395-3.12-.94v2.4c.006.026.006.054 0 .08-.048.08-.15.106-.23.06l-2.06-1.22c-.063-.028-.102-.09-.1-.16v-2.63c-1.878-1.17-3.482-2.733-4.7-4.58-.992-1.66-1.49-3.567-1.44-5.5-.006-.026-.006-.054 0-.08.048-.08.15-.106.23-.06l3.56 2.11c.056.025.094.08.1.14.027.885.21 1.758.54 2.58.39.808.967 1.514 1.68 2.06v-5.32c-1.413-1.15-2.697-2.452-3.83-3.88-1.177-1.45-1.844-3.244-1.9-5.11-.03-.784.143-1.562.5-2.26.212-.388.527-.71.91-.93.416-.227.886-.337 1.36-.32 1.062.07 2.092.395 3 .95v-2.3c-.006-.026-.006-.054 0-.08.048-.08.15-.106.23-.06l2.06 1.22c.063.028.102.09.1.16v2.52c1.313.876 2.486 1.945 3.48 3.17zm-7.08 1.55c.35.505.763.962 1.23 1.36v-4.23c-.325-.185-.687-.295-1.06-.32-.167-.008-.333.03-.48.11-.12.072-.216.176-.28.3-.09.177-.134.372-.13.57.012.792.263 1.563.72 2.21zm5.12 9.15c-.406-.652-.9-1.244-1.47-1.76v4.81c.328.175.69.277 1.06.3.162.005.324-.03.47-.1.152-.08.274-.206.35-.36.14-.314.206-.656.19-1-.025-.668-.228-1.318-.59-1.88z" fill="#fff" fill-rule="nonzero"/><path d="m130.74 112.21c7.53 4.35 13.63 15.89 13.63 25.77 0 5.46-1.86 9.27-4.8 10.85-.24.128-.487.242-.74.34l-5.53 2.54-1.4-3.11c-.39-.18-.78-.38-1.18-.61-7.53-4.35-13.63-15.89-13.63-25.77-.03-1.936.255-3.864.84-5.71l-1.21-2.79 5.26-2.41c2.37-1.23 5.41-1 8.74.89z" fill="#db7f1d"/><path d="m124.83 114.91c7.53 4.35 13.63 15.89 13.63 25.77s-6.1 14.36-13.63 10-13.63-15.89-13.63-25.77 6.1-14.36 13.63-10z" fill="#fcb218"/><path d="m119.05 121.98c.66-.48 1.55-.48 2.21 0 .96.623 1.725 1.503 2.21 2.54.58 1.106.894 2.332.92 3.58.08.935-.257 1.857-.92 2.52-.66.476-1.55.476-2.21 0-.96-.623-1.725-1.503-2.21-2.54-.58-1.106-.894-2.332-.92-3.58-.08-.935.257-1.857.92-2.52zm1.85 16.34c-.39.31-1-.05-1.4-.81s-.39-1.63 0-1.94l9.24-7.42c.39-.31 1 .05 1.4.81s.39 1.63 0 1.94zm5.18-2.54c.66-.48 1.55-.48 2.21 0 .96.623 1.725 1.503 2.21 2.54.575 1.107.887 2.332.91 3.58.083.933-.25 1.855-.91 2.52-.66.48-1.55.48-2.21 0-.96-.623-1.726-1.503-2.21-2.54-.58-1.106-.894-2.332-.92-3.58-.08-.935.257-1.857.92-2.52zm2.21 2.75c-.242-.175-.568-.175-.81 0-.24.243-.36.58-.33.92.01.453.123.897.33 1.3.177.38.458.703.81.93.24.17.56.17.8 0 .24-.243.36-.58.33-.92-.008-.453-.12-.898-.33-1.3-.174-.38-.452-.7-.8-.93zm-7.86-13.81c-.24.243-.36.58-.33.92.01.453.123.897.33 1.3.177.38.458.702.81.93.24.17.56.17.8 0 .24-.243.36-.58.33-.92-.008-.453-.12-.898-.33-1.3-.174-.38-.452-.7-.8-.93-.24-.17-.56-.17-.8 0z" fill="#fff" fill-rule="nonzero"/><path d="m123.48 192.7c1.144-.784 1.85-2.064 1.9-3.45v-12.33c0-1.3-.85-1.87-1.9-1.26-1.144.784-1.85 2.064-1.9 3.45v12.32c0 1.3.85 1.87 1.9 1.26zm15.63-9c1.144-.784 1.85-2.064 1.9-3.45v-15.56c0-1.3-.85-1.87-1.9-1.26-1.144.784-1.85 2.064-1.9 3.45v15.5c0 1.3.85 1.87 1.9 1.26zm-5.17 3c1.144-.784 1.85-2.064 1.9-3.45v-19.18c0-1.3-.85-1.87-1.9-1.26-1.144.784-1.85 2.064-1.9 3.45v19.12c0 1.3.85 1.87 1.9 1.26zm-5.17 3c1.144-.784 1.85-2.064 1.9-3.45v-8.63c0-1.3-.85-1.87-1.9-1.26-1.144.784-1.85 2.064-1.9 3.45v8.57c0 1.3.85 1.87 1.9 1.26z" fill="#c8c8c8"/></g></svg>